<svg
  xmlns="http://www.w3.org/2000/svg"
  width="32"
  height="32"
  viewBox="0 0 32 32"
  fill="#000000"
>
  <path
    d="M16 0C7.16 0 0 7.16 0 16s7.16 16 16 16 16-7.16 16-16S24.84 0 16 0zm5.088 12.852c-.13.058-.268.1-.4.15-.166.062-.326.132-.49.193.176-.396.308-.818.402-1.27-.18.08-.374.142-.572.170a2.275 2.275 0 00-.74-.095c-.65 0-1.18.536-1.18 1.198 0 .094.02.188.056.276a6.56 6.56 0 01-4.748-2.407 1.2 1.2 0 00-.162.060c-.322.16-.676.26-1.056.26a1.433 1.433 0 00-.454-.074c-.1 0-.204.012-.308.024a1.202 1.202 0 001.116.837 1.204 1.204 0 01-.534-.146c-.122-.062-.25-.104-.388-.128a1.195 1.195 0 001.096.782 2.416 2.416 0 01-.714-.087 1.208 1.208 0 00.454.706c.204.144.44.228.696.228a2.45 2.45 0 01-.878.164 2.438 2.438 0 002.272 1.688 4.155 4.155 0 01-2.938 1.006c-.192 0-.38-.012-.566-.036a6.56 6.56 0 003.538 1.038c4.21 0 6.518-3.5 6.518-6.548 0-.1-.002-.2-.006-.3.448-.322.84-.724 1.148-1.182z"
  />
</svg>
